<mxfile host="Electron" modified="2023-12-01T21:30:37.209Z" agent="Mozilla/5.0 (Windows NT 10.0; Win64; x64) AppleWebKit/537.36 (KHTML, like Gecko) draw.io/22.1.2 Chrome/114.0.5735.289 Electron/25.9.4 Safari/537.36" version="22.1.2" etag="h3dXk4Wj4nJtNCfMQBBU" type="device">
  <diagram name="Page-1" id="mT6OGAQGUTrSOzz5xe34">
    <mxGraphModel dx="2662" dy="1082" grid="0" gridSize="10" guides="1" tooltips="1" connect="1" arrows="1" fold="1" page="0" pageScale="1" pageWidth="850" pageHeight="1100" math="0" shadow="1">
      <root>
        <mxCell id="0" />
        <mxCell id="4" value="aws cloud" parent="0" />
        <mxCell id="5" value="&lt;b&gt;&lt;font style=&quot;font-size: 13px;&quot;&gt;AWS Cloud&lt;/font&gt;&lt;/b&gt;" style="outlineConnect=0;html=1;whiteSpace=wrap;fontSize=12;fontStyle=0;shape=mxgraph.aws4.group;grIcon=mxgraph.aws4.group_aws_cloud;strokeColor=#028090;fillColor=none;verticalAlign=top;align=left;spacingLeft=30;fontColor=#E4FDE1;dashed=0;labelBackgroundColor=none;rounded=0;" parent="4" vertex="1">
          <mxGeometry x="-520" width="1280" height="920" as="geometry" />
        </mxCell>
        <mxCell id="6" value="aws region" parent="0" />
        <mxCell id="7" value="&lt;b&gt;&lt;font style=&quot;font-size: 13px;&quot;&gt;Region (eu-central-1)&lt;/font&gt;&lt;/b&gt;" style="outlineConnect=0;html=1;whiteSpace=wrap;fontSize=12;fontStyle=0;shape=mxgraph.aws4.group;grIcon=mxgraph.aws4.group_region;strokeColor=#028090;fillColor=none;verticalAlign=top;align=left;spacingLeft=30;fontColor=#E4FDE1;dashed=1;labelBackgroundColor=none;rounded=0;" parent="6" vertex="1">
          <mxGeometry x="-360" y="80" width="1080" height="760" as="geometry" />
        </mxCell>
        <UserObject label="&lt;a href=&quot;https://eu-central-1.console.aws.amazon.com/vpcconsole/home?region=eu-central-1#VpcDetails:VpcId=vpc-0c0962cd47bd31248&quot; target=&quot;_top&quot;&gt;&lt;b&gt;&lt;font style=&quot;font-size: 13px;&quot;&gt;vpc-0c0962cd47bd31248&lt;/font&gt;&lt;/b&gt;&lt;/a&gt;" link="https://eu-central-1.console.aws.amazon.com/vpcconsole/home?region=eu-central-1#VpcDetails:VpcId=vpc-0c0962cd47bd31248" linkTarget="_blank" id="8">
          <mxCell style="outlineConnect=0;html=1;whiteSpace=wrap;fontSize=12;fontStyle=0;shape=mxgraph.aws4.group;grIcon=mxgraph.aws4.group_vpc;strokeColor=#028090;fillColor=none;verticalAlign=top;align=left;spacingLeft=30;fontColor=#E4FDE1;dashed=0;labelBackgroundColor=none;rounded=0;" parent="6" vertex="1">
            <mxGeometry x="-240" y="120" width="920" height="680" as="geometry" />
          </mxCell>
        </UserObject>
        <mxCell id="9" value="aws vpc" parent="0" />
        <mxCell id="10" value="az" parent="0" />
        <mxCell id="11" value="&lt;b&gt;&lt;font style=&quot;font-size: 13px;&quot;&gt;AZ (eu-central-1a)&lt;/font&gt;&lt;/b&gt;" style="outlineConnect=0;html=1;whiteSpace=wrap;fontSize=12;fontStyle=0;shape=mxgraph.aws4.group;grIcon=mxgraph.aws4.group_availability_zone;strokeColor=#028090;fillColor=none;verticalAlign=top;align=left;spacingLeft=30;fontColor=#E4FDE1;dashed=1;labelBackgroundColor=none;rounded=0;" parent="10" vertex="1">
          <mxGeometry x="-120" y="160" width="760" height="600" as="geometry" />
        </mxCell>
        <mxCell id="T-5kLHyHQn1vIAeFj_Vk-42" style="edgeStyle=orthogonalEdgeStyle;rounded=0;orthogonalLoop=1;jettySize=auto;html=1;strokeColor=#028090;fontColor=#E4FDE1;fillColor=#F45B69;flowAnimation=1;" edge="1" parent="10">
          <mxGeometry relative="1" as="geometry">
            <mxPoint x="-402" y="461" as="sourcePoint" />
            <mxPoint x="-281" y="461" as="targetPoint" />
          </mxGeometry>
        </mxCell>
        <mxCell id="12" value="subnet" parent="0" />
        <mxCell id="13" value="&lt;div class=&quot;column-row&quot; style=&quot;height: 36px;&quot;&gt;&lt;div class=&quot;LocatedElement&quot; id=&quot;subnet-0417b0f1175508beb&quot;&gt;&lt;div class=&quot;resource&quot;&gt;&lt;div class=&quot;resource-label&quot;&gt;&lt;a href=&quot;data:page/id,mT6OGAQGUTrSOzz5xe34&quot;&gt;&lt;b&gt;&lt;font style=&quot;font-size: 13px;&quot;&gt;subnet-0417b0f1175508beb&lt;/font&gt;&lt;/b&gt;&lt;/a&gt;&lt;/div&gt;&lt;/div&gt;&lt;/div&gt;&lt;/div&gt;" style="outlineConnect=0;html=1;whiteSpace=wrap;fontSize=12;fontStyle=0;shape=mxgraph.aws4.group;grIcon=mxgraph.aws4.group_subnet;strokeColor=#028090;fillColor=none;verticalAlign=top;align=left;spacingLeft=30;fontColor=#E4FDE1;dashed=0;labelBackgroundColor=none;rounded=0;" parent="12" vertex="1">
          <mxGeometry x="-40" y="240" width="600" height="440" as="geometry" />
        </mxCell>
        <mxCell id="14" value="app" parent="0" />
        <mxCell id="15" value="" style="image;aspect=fixed;html=1;points=[];align=center;fontSize=12;image=img/lib/azure2/general/Code.svg;labelBackgroundColor=none;fillColor=#F45B69;strokeColor=#028090;fontColor=#E4FDE1;rounded=0;" parent="14" vertex="1">
          <mxGeometry x="128" y="296" width="64" height="52" as="geometry" />
        </mxCell>
        <mxCell id="16" value="Toodolist App" style="text;html=1;strokeColor=none;fillColor=none;align=center;verticalAlign=middle;whiteSpace=wrap;rounded=0;labelBackgroundColor=none;fontColor=#E4FDE1;fontSize=13;fontStyle=1" parent="14" vertex="1">
          <mxGeometry x="116" y="265" width="88" height="30" as="geometry" />
        </mxCell>
        <mxCell id="17" value="mysql" parent="0" />
        <mxCell id="18" value="" style="edgeStyle=orthogonalEdgeStyle;rounded=0;orthogonalLoop=1;jettySize=auto;html=1;labelBackgroundColor=none;strokeColor=#028090;fontColor=default;" parent="17" source="19" target="32" edge="1">
          <mxGeometry relative="1" as="geometry" />
        </mxCell>
        <mxCell id="19" value="" style="image;aspect=fixed;html=1;points=[];align=center;fontSize=12;image=img/lib/azure2/databases/Azure_Database_MySQL_Server.svg;labelBackgroundColor=none;fillColor=#F45B69;strokeColor=#028090;fontColor=#E4FDE1;rounded=0;" parent="17" vertex="1">
          <mxGeometry x="336" y="286" width="48" height="64" as="geometry" />
        </mxCell>
        <mxCell id="20" value="MySQL DB" style="text;html=1;strokeColor=none;fillColor=none;align=center;verticalAlign=middle;whiteSpace=wrap;rounded=0;labelBackgroundColor=none;fontColor=#E4FDE1;fontSize=13;fontStyle=1" parent="17" vertex="1">
          <mxGeometry x="325" y="257" width="71" height="30" as="geometry" />
        </mxCell>
        <mxCell id="21" value="s3" parent="0" />
        <mxCell id="22" value="&lt;font style=&quot;font-size: 12px;&quot;&gt;Amazon S3&lt;/font&gt;" style="outlineConnect=0;fontColor=#E4FDE1;strokeColor=#028090;fillColor=#F45B69;dashed=0;verticalLabelPosition=middle;verticalAlign=bottom;align=center;html=1;whiteSpace=wrap;fontSize=12;fontStyle=1;spacing=3;shape=mxgraph.aws4.productIcon;prIcon=mxgraph.aws4.s3;points=[];labelBackgroundColor=none;rounded=0;" parent="21" vertex="1">
          <mxGeometry x="-482" y="416" width="80" height="100" as="geometry" />
        </mxCell>
        <mxCell id="23" value="" style="whiteSpace=wrap;html=1;shape=mxgraph.basic.document;labelBackgroundColor=none;fillColor=#F45B69;strokeColor=#028090;fontColor=#E4FDE1;rounded=0;" parent="21" vertex="1">
          <mxGeometry x="-480" y="230" width="80" height="90" as="geometry" />
        </mxCell>
        <mxCell id="24" value="" style="edgeStyle=orthogonalEdgeStyle;rounded=0;orthogonalLoop=1;jettySize=auto;html=1;labelBackgroundColor=none;strokeColor=#028090;fontColor=default;" parent="21" source="25" target="22" edge="1">
          <mxGeometry relative="1" as="geometry" />
        </mxCell>
        <mxCell id="25" value="index.html" style="text;html=1;strokeColor=none;fillColor=none;align=center;verticalAlign=middle;whiteSpace=wrap;rounded=0;labelBackgroundColor=none;fontColor=#E4FDE1;fontSize=13;fontStyle=1" parent="21" vertex="1">
          <mxGeometry x="-471" y="320" width="60" height="30" as="geometry" />
        </mxCell>
        <mxCell id="26" value="user" parent="0" />
        <mxCell id="27" value="" style="edgeStyle=none;html=1;flowAnimation=1;labelBackgroundColor=none;strokeColor=#028090;fontColor=default;" parent="26" edge="1">
          <mxGeometry relative="1" as="geometry">
            <mxPoint x="-594" y="460.5644699140403" as="sourcePoint" />
            <mxPoint x="-481.9999999999998" y="460.885386819484" as="targetPoint" />
          </mxGeometry>
        </mxCell>
        <mxCell id="28" value="" style="outlineConnect=0;dashed=0;verticalLabelPosition=bottom;verticalAlign=top;align=center;html=1;shape=mxgraph.aws3.user;fillColor=#F45B69;labelBackgroundColor=none;strokeColor=#028090;fontColor=#E4FDE1;rounded=0;" parent="26" vertex="1">
          <mxGeometry x="-639" y="434" width="45" height="63" as="geometry" />
        </mxCell>
        <mxCell id="T-5kLHyHQn1vIAeFj_Vk-49" value="User" style="text;html=1;strokeColor=none;fillColor=none;align=center;verticalAlign=middle;whiteSpace=wrap;rounded=0;fontColor=#E4FDE1;fontSize=13;fontStyle=1" vertex="1" parent="26">
          <mxGeometry x="-646.5" y="494" width="60" height="30" as="geometry" />
        </mxCell>
        <mxCell id="35" value="sg" parent="0" />
        <mxCell id="36" value="Security group" style="fillColor=none;strokeColor=#028090;verticalAlign=top;fontStyle=1;fontColor=#E4FDE1;whiteSpace=wrap;html=1;labelBackgroundColor=none;rounded=0;fontSize=13;" parent="35" vertex="1">
          <mxGeometry x="280" y="360" width="160" height="200" as="geometry" />
        </mxCell>
        <mxCell id="37" value="Security group" style="fillColor=none;strokeColor=#028090;verticalAlign=top;fontStyle=1;fontColor=#E4FDE1;whiteSpace=wrap;html=1;labelBackgroundColor=none;rounded=0;fontSize=13;" parent="35" vertex="1">
          <mxGeometry x="80" y="360" width="160" height="200" as="geometry" />
        </mxCell>
        <mxCell id="T-5kLHyHQn1vIAeFj_Vk-46" value="Ports: 22, 80" style="text;html=1;strokeColor=none;fillColor=none;align=center;verticalAlign=middle;whiteSpace=wrap;rounded=0;fontColor=#E4FDE1;fontSize=13;fontStyle=1" vertex="1" parent="35">
          <mxGeometry x="116.5" y="526" width="87" height="30" as="geometry" />
        </mxCell>
        <mxCell id="T-5kLHyHQn1vIAeFj_Vk-47" value="Ports: 22, 3306" style="text;html=1;strokeColor=none;fillColor=none;align=center;verticalAlign=middle;whiteSpace=wrap;rounded=0;fontColor=#E4FDE1;fontSize=13;fontStyle=1" vertex="1" parent="35">
          <mxGeometry x="315" y="526" width="96" height="30" as="geometry" />
        </mxCell>
        <mxCell id="29" value="instances" parent="0" />
        <mxCell id="30" style="edgeStyle=orthogonalEdgeStyle;rounded=0;orthogonalLoop=1;jettySize=auto;html=1;flowAnimation=1;labelBackgroundColor=none;strokeColor=#028090;fontColor=default;" parent="29" source="31" target="32" edge="1">
          <mxGeometry relative="1" as="geometry" />
        </mxCell>
        <mxCell id="31" value="&lt;font style=&quot;font-size: 12px;&quot;&gt;Amazon EC2&lt;br&gt;Backend&lt;/font&gt;" style="outlineConnect=0;fontColor=#E4FDE1;strokeColor=#028090;fillColor=#F45B69;dashed=0;verticalLabelPosition=middle;verticalAlign=bottom;align=center;html=1;whiteSpace=wrap;fontSize=10;fontStyle=1;spacing=3;shape=mxgraph.aws4.productIcon;prIcon=mxgraph.aws4.ec2;labelBackgroundColor=none;rounded=0;" parent="29" vertex="1">
          <mxGeometry x="120" y="400" width="80" height="120" as="geometry" />
        </mxCell>
        <mxCell id="32" value="&lt;font style=&quot;font-size: 12px;&quot;&gt;Amazon EC2&lt;br&gt;Database&lt;/font&gt;" style="outlineConnect=0;fontColor=#E4FDE1;strokeColor=#028090;fillColor=#F45B69;dashed=0;verticalLabelPosition=middle;verticalAlign=bottom;align=center;html=1;whiteSpace=wrap;fontSize=10;fontStyle=1;spacing=3;shape=mxgraph.aws4.productIcon;prIcon=mxgraph.aws4.ec2;labelBackgroundColor=none;rounded=0;" parent="29" vertex="1">
          <mxGeometry x="320" y="400" width="80" height="120" as="geometry" />
        </mxCell>
        <mxCell id="34" style="edgeStyle=orthogonalEdgeStyle;rounded=0;orthogonalLoop=1;jettySize=auto;html=1;labelBackgroundColor=none;strokeColor=#028090;fontColor=default;" parent="29" source="15" target="31" edge="1">
          <mxGeometry relative="1" as="geometry" />
        </mxCell>
        <mxCell id="T-5kLHyHQn1vIAeFj_Vk-45" style="edgeStyle=orthogonalEdgeStyle;rounded=0;orthogonalLoop=1;jettySize=auto;html=1;strokeColor=#028090;fontColor=#E4FDE1;fillColor=#F45B69;flowAnimation=1;" edge="1" parent="29" source="T-5kLHyHQn1vIAeFj_Vk-40" target="31">
          <mxGeometry relative="1" as="geometry" />
        </mxCell>
        <mxCell id="38" value="internet gateway" parent="0" />
        <mxCell id="T-5kLHyHQn1vIAeFj_Vk-43" value="" style="edgeStyle=orthogonalEdgeStyle;rounded=0;orthogonalLoop=1;jettySize=auto;html=1;strokeColor=#028090;fontColor=#E4FDE1;fillColor=#F45B69;flowAnimation=1;" edge="1" parent="38" source="39" target="T-5kLHyHQn1vIAeFj_Vk-40">
          <mxGeometry relative="1" as="geometry" />
        </mxCell>
        <mxCell id="39" value="" style="outlineConnect=0;fontColor=#E4FDE1;fillColor=#F45B69;strokeColor=none;dashed=0;verticalLabelPosition=bottom;verticalAlign=top;align=center;html=1;fontSize=12;fontStyle=0;aspect=fixed;pointerEvents=1;shape=mxgraph.aws4.internet_gateway;labelBackgroundColor=none;" parent="38" vertex="1">
          <mxGeometry x="-279" y="423" width="78" height="78" as="geometry" />
        </mxCell>
        <mxCell id="T-5kLHyHQn1vIAeFj_Vk-50" value="Internet Gateway" style="text;html=1;strokeColor=none;fillColor=none;align=center;verticalAlign=middle;whiteSpace=wrap;rounded=0;fontColor=#E4FDE1;fontSize=13;fontStyle=1" vertex="1" parent="38">
          <mxGeometry x="-272" y="503" width="60" height="30" as="geometry" />
        </mxCell>
        <mxCell id="T-5kLHyHQn1vIAeFj_Vk-39" value="router" parent="0" />
        <mxCell id="T-5kLHyHQn1vIAeFj_Vk-40" value="" style="sketch=0;outlineConnect=0;fontColor=#E4FDE1;fillColor=#F45B69;strokeColor=none;dashed=0;verticalLabelPosition=bottom;verticalAlign=top;align=center;html=1;fontSize=12;fontStyle=0;aspect=fixed;pointerEvents=1;shape=mxgraph.aws4.customer_gateway;labelBackgroundColor=none;" vertex="1" parent="T-5kLHyHQn1vIAeFj_Vk-39">
          <mxGeometry x="-158" y="422" width="78" height="78" as="geometry" />
        </mxCell>
        <mxCell id="T-5kLHyHQn1vIAeFj_Vk-51" value="Router" style="text;html=1;strokeColor=none;fillColor=none;align=center;verticalAlign=middle;whiteSpace=wrap;rounded=0;fontColor=#E4FDE1;fontStyle=1;fontSize=13;" vertex="1" parent="T-5kLHyHQn1vIAeFj_Vk-39">
          <mxGeometry x="-149" y="500" width="60" height="30" as="geometry" />
        </mxCell>
      </root>
    </mxGraphModel>
  </diagram>
</mxfile>
